<svg version="1.0" xmlns="http://www.w3.org/2000/svg"
 width="1021.000000pt" height="318.000000pt" viewBox="0 0 1021.000000 318.000000"
 preserveAspectRatio="xMidYMid meet">
<g transform="translate(0.000000,318.000000) scale(0.100000,-0.100000)"
fill="#000000" stroke="none">
<path fill="#072D6C" d="M3975 3168 c-2 -7 -52 -240 -110 -518 -59 -278 -205 -973 -326 -1544
-120 -572 -219 -1041 -219 -1043 0 -2 125 -3 278 -3 l279 0 17 78 c46 207 636
3017 636 3029 0 19 -549 19 -555 1z"/>
<path fill="#072D6C" d="M955 2924 c-44 -8 -108 -23 -141 -35 -193 -63 -328 -216 -398 -449
-14 -47 -111 -490 -217 -985 l-192 -900 -1 -140 c-1 -139 -1 -141 32 -208 75
-152 223 -206 572 -207 267 0 415 28 546 105 143 84 248 248 303 475 26 106
121 554 121 569 0 8 -104 11 -358 11 l-358 0 -43 -198 c-23 -108 -45 -205 -47
-214 -5 -16 3 -18 60 -18 77 0 74 7 46 -116 -31 -131 -62 -171 -146 -187 -41
-8 -105 8 -122 30 -21 28 -12 88 97 613 205 992 281 1343 299 1374 33 57 123
82 199 56 31 -11 53 -45 53 -81 0 -11 -32 -167 -71 -347 -80 -370 -179 -848
-179 -863 0 -6 110 -8 292 -7 l291 3 118 565 c65 311 123 607 130 658 38 298
-64 448 -341 498 -101 18 -438 17 -545 -2z"/>
<path fill="#072D6C" d="M2694 2925 c-152 -27 -258 -80 -342 -169 -120 -129 -151 -218 -262
-751 -17 -82 -33 -160 -36 -172 l-6 -23 281 0 c155 0 281 2 281 5 0 30 134
616 148 649 25 56 67 80 129 73 57 -6 73 -21 73 -68 0 -42 -183 -916 -201
-962 -16 -38 -62 -74 -111 -87 -22 -6 -104 -22 -182 -35 -370 -62 -521 -160
-606 -393 -15 -42 -47 -178 -71 -302 -40 -202 -44 -240 -44 -370 0 -131 2
-149 22 -187 54 -100 144 -137 317 -131 96 3 119 8 168 32 73 35 155 110 208
188 22 33 40 56 40 51 0 -5 -9 -49 -20 -99 -11 -49 -20 -95 -20 -101 0 -10 62
-13 278 -13 l277 0 98 468 c55 257 164 771 243 1142 80 371 151 716 159 765
53 323 -26 451 -305 495 -91 14 -429 11 -516 -5z m-24 -1852 c0 -39 -71 -337
-107 -448 -24 -77 -72 -166 -105 -197 -38 -35 -95 -39 -124 -7 -32 36 -24 144
26 354 40 170 56 221 78 254 6 8 53 22 109 31 119 22 123 22 123 13z"/>
<path fill="#072D6C" d="M5174 2925 c-152 -27 -258 -80 -342 -169 -120 -129 -151 -218 -262
-751 -17 -82 -33 -160 -36 -172 l-6 -23 281 0 c155 0 281 2 281 5 0 30 134
616 148 649 25 56 67 80 129 73 57 -6 73 -21 73 -68 0 -42 -183 -916 -201
-962 -16 -38 -62 -74 -111 -87 -22 -6 -104 -22 -182 -35 -370 -62 -521 -160
-606 -393 -15 -42 -47 -178 -71 -302 -40 -202 -44 -240 -44 -370 0 -131 2
-149 22 -187 54 -100 144 -137 317 -131 96 3 119 8 168 32 73 35 155 110 208
188 22 33 40 56 40 51 0 -5 -9 -49 -20 -99 -11 -49 -20 -95 -20 -101 0 -10 62
-13 278 -13 l277 0 98 468 c55 257 164 771 243 1142 80 371 151 716 159 765
53 323 -26 451 -305 495 -91 14 -429 11 -516 -5z m-24 -1852 c0 -39 -71 -337
-107 -448 -24 -77 -72 -166 -105 -197 -38 -35 -95 -39 -124 -7 -32 36 -24 144
26 354 40 170 56 221 78 254 6 8 53 22 109 31 119 22 123 22 123 13z"/>
<path fill="#072D6C" d="M9375 2933 c-74 -11 -197 -44 -246 -66 -156 -70 -268 -208 -332 -412
-35 -112 -406 -1849 -419 -1964 -20 -167 15 -297 101 -374 51 -46 81 -61 178
-89 72 -21 98 -23 323 -23 281 0 348 10 488 75 190 89 296 251 366 560 35 158
156 729 156 741 0 5 -111 9 -278 9 l-279 0 -10 -52 c-49 -257 -169 -791 -185
-825 -28 -60 -77 -100 -133 -108 -62 -10 -107 1 -136 31 -20 21 -24 35 -22 82
1 42 151 791 198 990 l5 22 435 0 434 0 10 38 c5 20 17 75 26 122 9 47 46 220
83 385 64 293 66 303 66 450 1 133 -1 155 -20 196 -46 99 -130 160 -266 195
-47 12 -121 17 -288 19 -124 2 -238 1 -255 -2z m204 -404 c40 -14 61 -54 61
-116 0 -26 -21 -146 -47 -265 l-47 -218 -157 0 -157 0 29 138 c58 276 72 331
98 379 42 78 134 112 220 82z"/>
<path fill="#072D6C" d="M7135 2848 c3 -24 50 -343 103 -709 l97 -666 -413 -689 c-227 -379
-417 -697 -423 -706 -9 -17 6 -18 258 -18 l268 1 200 379 c109 208 201 377
203 375 3 -3 111 -726 112 -747 0 -5 133 -8 296 -8 l296 0 -7 30 c-4 16 -51
332 -105 702 l-98 673 406 680 c223 374 411 687 419 696 7 8 13 23 13 32 0 16
-22 17 -262 15 l-261 -3 -200 -388 c-122 -237 -203 -384 -207 -375 -4 7 -31
183 -61 391 l-54 377 -293 0 -293 0 6 -42z"/>
<path fill="#072D6C" d="M6318 1817 c-106 -45 -178 -122 -214 -229 -25 -75 -16 -206 18 -280
34 -73 103 -142 176 -176 50 -24 69 -27 162 -27 93 0 112 3 162 27 73 34 142
103 176 176 24 50 27 69 27 162 0 93 -3 112 -27 162 -34 73 -103 142 -176 176
-47 22 -74 27 -152 30 -81 2 -103 -1 -152 -21z"/>
</g>
</svg>
