<?xml version="1.0" standalone="no"?>
<!DOCTYPE svg PUBLIC "-//W3C//DTD SVG 20010904//EN"
 "http://www.w3.org/TR/2001/REC-SVG-20010904/DTD/svg10.dtd">
<svg version="1.0" xmlns="http://www.w3.org/2000/svg"
 width="1533.000000pt" height="228.000000pt" viewBox="0 0 1533.000000 228.000000"
 preserveAspectRatio="xMidYMid meet">
<metadata>
Created by potrace 1.15, written by Peter Selinger 2001-2017
</metadata>
<g transform="translate(0.000000,228.000000) scale(0.100000,-0.100000)"
fill="#FFFFFF" stroke="none">
<path d="M1617 1774 c-4 -4 -7 -34 -7 -67 l0 -59 -41 54 c-23 29 -46 57 -50
63 -5 5 -9 -272 -9 -623 0 -555 2 -632 15 -632 13 0 15 71 15 578 l1 577 34
-39 35 -39 0 -539 c0 -531 0 -538 20 -538 19 0 20 8 22 510 l3 509 379 -495
c209 -272 383 -497 388 -500 4 -3 7 275 6 618 -3 546 -5 623 -18 623 -13 0
-16 -72 -20 -571 l-5 -570 -365 477 -365 476 -5 93 c-5 85 -14 112 -33 94z"/>
<path d="M2820 1460 l0 -310 445 0 c389 0 445 2 445 15 0 13 -48 15 -375 15
l-375 0 0 280 0 280 375 0 c327 0 375 2 375 15 0 13 -51 15 -395 15 l-395 0 0
-295 0 -295 -35 0 -35 0 0 295 c0 256 -2 295 -15 295 -13 0 -15 -41 -15 -310z"/>
<path d="M4070 1764 c0 -3 95 -138 210 -299 116 -162 213 -301 216 -309 5 -12
-259 -394 -424 -613 l-24 -33 23 0 c20 0 61 53 237 300 118 165 217 300 220
300 4 0 15 -12 25 -25 l18 -25 -195 -273 c-108 -149 -191 -274 -186 -275 6 -2
16 -2 24 1 7 3 93 118 192 256 98 138 182 251 186 251 3 0 88 -115 188 -255
132 -185 187 -255 202 -255 13 0 17 4 12 13 -4 6 -106 150 -226 319 l-219 306
214 299 c254 356 233 323 208 323 -15 0 -75 -76 -232 -296 l-212 -296 -19 31
-20 31 186 260 c102 144 186 263 186 265 0 3 -8 5 -18 5 -13 0 -72 -74 -185
-232 -91 -128 -172 -241 -179 -251 -13 -17 -30 3 -193 232 -122 173 -184 251
-197 251 -10 0 -18 -3 -18 -6z"/>
<path d="M5340 1755 c0 -13 33 -15 240 -15 l240 0 0 -615 c0 -540 2 -615 15
-615 13 0 15 75 15 615 l0 615 190 0 c162 0 190 2 190 15 0 13 -56 15 -445 15
-389 0 -445 -2 -445 -15z"/>
<path d="M6940 1756 c-306 -65 -510 -313 -510 -621 0 -415 368 -701 797 -620
89 17 217 76 278 129 l40 35 -42 42 -42 43 -42 -33 c-248 -200 -649 -122 -796
155 -160 301 3 672 328 749 121 28 284 13 378 -34 21 -11 60 -36 86 -56 l48
-37 40 41 c40 40 41 40 22 61 -39 43 -139 100 -218 126 -101 32 -267 41 -367
20z"/>
<path d="M9476 1754 c-227 -49 -348 -223 -292 -418 37 -126 137 -189 414 -261
191 -49 241 -68 291 -110 88 -75 78 -213 -20 -285 -64 -46 -137 -64 -259 -63
-150 0 -284 42 -387 120 l-32 25 -25 -50 -25 -49 22 -20 c160 -147 532 -187
740 -81 184 93 236 339 101 475 -62 61 -140 95 -344 148 -186 48 -286 89 -320
132 -50 64 -50 162 0 231 93 129 380 144 599 33 24 -13 44 -21 46 -19 2 2 13
25 24 51 l20 47 -42 24 c-131 76 -345 105 -511 70z"/>
<path d="M13015 1754 c-114 -23 -243 -93 -325 -174 -239 -240 -239 -650 0
-890 253 -252 707 -252 960 0 239 240 239 650 0 890 -155 155 -401 222 -635
174z m277 -115 c145 -30 286 -136 347 -260 33 -68 61 -178 61 -244 0 -66 -28
-176 -61 -244 -43 -88 -128 -170 -221 -214 -319 -152 -686 9 -763 334 -66 281
101 558 378 625 66 16 190 17 259 3z"/>
<path d="M7969 1135 l-287 -626 71 3 71 3 72 160 72 160 352 0 353 0 72 -160
72 -160 71 -3 72 -3 -36 78 c-19 43 -148 324 -286 626 l-251 547 -66 0 -66 0
-286 -625z m503 148 l146 -328 -149 -3 c-82 -1 -216 -1 -298 0 l-149 3 147
327 c80 181 148 328 151 328 3 0 72 -147 152 -327z"/>
<path d="M10460 1135 l0 -625 65 0 65 0 0 625 0 625 -65 0 -65 0 0 -625z"/>
<path d="M11090 1135 l0 -625 65 0 65 0 2 504 3 503 398 -503 398 -504 55 0
54 0 0 625 0 625 -65 0 -65 0 -2 -504 -3 -503 -399 503 -399 504 -53 0 -54 0
0 -625z"/>
<path d="M5340 1655 c0 -13 27 -15 185 -15 l185 0 0 -565 c0 -558 0 -565 20
-565 20 0 20 7 20 580 l0 580 -205 0 c-176 0 -205 -2 -205 -15z"/>
<path d="M2820 795 c0 -247 2 -285 15 -285 13 0 15 37 15 270 l0 270 35 0 35
0 0 -270 0 -270 395 0 c344 0 395 2 395 15 0 13 -48 15 -375 15 l-375 0 0 255
0 255 375 0 c327 0 375 2 375 15 0 13 -56 15 -445 15 l-445 0 0 -285z"/>
</g>
</svg>
